<?xml version="1.0" encoding="UTF-8" standalone="no"?>
<!-- Created with Inkscape (http://www.inkscape.org/) -->
<!DOCTYPE svg PUBLIC "-//W3C//DTD SVG 1.1//EN" "http://www.w3.org/Graphics/SVG/1.1/DTD/svg11.dtd">
<svg
   xmlns:svg="http://www.w3.org/2000/svg"
   xmlns="http://www.w3.org/2000/svg"
   version="1.1"
   width="400"
   height="120"
   id="svg2816"
   xml:space="preserve"><defs
     id="defs2820" /><g
     transform="matrix(0,-1.25,-1.25,0,1052.5,119.99998)"
     id="g2826"><g
       id="g2994"><path
         d="m 85.80505,733.60012 0,-51.58327 -15.61654,0 0,34.90358 -14.11217,0 0,-32.82015 -15.39594,0 0,32.82015 -15.39593,0 0,-36.66837 -15.47559,-0.003 0,53.34806 75.99617,0.003"
         id="path2898"
         style="fill:#00083b;fill-opacity:1;fill-rule:nonzero;stroke:none" /><path
         d="m 67.35137,541.54465 c 3.41928,2.67476 5.02474,8.01814 5.02474,12.08083 0,4.70304 -2.13858,11.22601 -7.80673,11.22601 C 50.77891,564.85149 59.65187,530 33.13716,530 c -16.8911,0 -24.90924,13.576 -24.90924,29.18334 0,9.72778 2.88616,18.2821 9.51637,25.44542 L 30.78718,572.7624 c -4.49163,-3.42234 -7.16333,-8.9802 -7.16333,-14.53805 0,-5.45369 2.56446,-11.54772 7.91091,-11.54772 13.8977,0 6.41574,35.49184 31.64669,35.49184 16.14352,0 24.5906,-14.00494 24.5906,-28.86469 0,-8.55126 -2.24582,-16.78387 -7.91091,-23.19654 l -12.50977,11.43741"
         id="path2900"
         style="fill:#00083b;fill-opacity:1;fill-rule:nonzero;stroke:none" /><path
         d="m 87.58515,630.9575 c 0,16.83595 -13.70774,23.3528 -33.94765,24.36694 10.90737,-2.42659 17.75818,-11.87555 17.75818,-24.23826 0,-12.16355 -6.63021,-21.49303 -17.22813,-24.10651 20.34408,0.92223 33.4176,6.99481 33.4176,23.97783 z m -46.00703,-23.938 c -10.49988,2.66863 -17.06268,11.96747 -17.06268,24.06668 0,12.42092 6.90902,21.90359 17.90831,24.27502 -20.84043,-0.8732 -34.0457,-7.3349 -34.0457,-24.4037 0,-16.53876 13.32782,-22.86564 33.20007,-23.938 z m 44.84276,9.54395 c -5.74475,-11.97972 -19.07564,-19.41267 -36.94411,-19.41267 -18.93164,0 -34.0794,6.86307 -40.16424,19.97029 5.2147,-16.57858 19.89675,-26.60662 38.6415,-26.60662 18.53639,0 33.10202,9.80131 38.46685,26.049 z m -40.28066,48.60519 c 19.56279,0 34.79328,-7.48196 40.71267,-20.93847 -4.97879,17.06881 -19.84161,27.42775 -38.89886,27.42775 -19.00211,0 -33.83429,-10.30379 -38.85597,-27.28987 5.49045,12.7273 19.03887,20.80059 37.04216,20.80059"
         id="path2902"
         style="fill:#00083b;fill-opacity:1;fill-rule:evenodd;stroke:none" /><path
         d="m 9.80888,804.21002 2.07117,0 0,-5.60995 71.74352,0 0,5.60995 2.18148,0 0,-14.58401 -61.93915,-34.77796 59.75767,0 0,9.42445 2.18148,0 0,-15.59508 -2.18148,0 0,3.59085 -73.81469,0 0,3.48055 73.26932,40.27148 -71.19815,0 0,-9.08743 -2.07117,0 0,17.27715"
         id="path2904"
         style="fill:#00083b;fill-opacity:1;fill-rule:nonzero;stroke:none" /><path
         d="m 9.80888,834 2.07117,0 0,-5.7233 71.75271,0 0,5.7233 2.16616,0 0,-19.01743 -2.16616,0 0,5.77846 -71.75271,0 0,-5.77846 -2.07117,0 0,19.01743"
         id="path2906"
         style="fill:#00083b;fill-opacity:1;fill-rule:nonzero;stroke:none" /></g></g></svg>