<?xml version="1.0" standalone="no"?>
<!DOCTYPE svg PUBLIC "-//W3C//DTD SVG 20010904//EN"
 "http://www.w3.org/TR/2001/REC-SVG-20010904/DTD/svg10.dtd">
<svg version="1.0" xmlns="http://www.w3.org/2000/svg"
 width="100.000000pt" height="97.000000pt" viewBox="0 0 100.000000 97.000000"
 preserveAspectRatio="xMidYMid meet">

<g transform="translate(0.000000,97.000000) scale(0.100000,-0.100000)"
fill="#000000" stroke="none">
<path d="M481 890 c-30 -28 -62 -50 -70 -50 -9 0 -43 -13 -76 -29 -146 -69
-234 -231 -210 -387 6 -41 9 -46 19 -32 10 14 16 7 40 -50 46 -109 49 -114
107 -157 72 -53 162 -80 239 -71 62 8 147 43 191 81 51 42 137 154 144 187 5
21 10 26 15 18 15 -25 39 -2 46 46 9 65 -11 167 -48 236 -38 72 -121 151 -191
184 l-54 24 -54 -19 c-30 -10 -63 -22 -74 -26 -16 -6 -13 -1 11 26 55 62 59
69 38 69 -11 -1 -43 -23 -73 -50z m149 -131 c25 -11 58 -32 74 -47 34 -32 86
-101 86 -115 0 -5 -15 13 -32 39 -82 122 -269 172 -370 99 -18 -14 -42 -29
-54 -34 -32 -14 -80 -75 -99 -125 -14 -35 -16 -65 -13 -128 3 -46 1 -74 -3
-63 -13 34 -10 161 6 205 20 56 102 157 134 164 14 3 49 13 76 21 60 18 132
12 195 -16z m177 -231 c-3 -8 -6 -5 -6 6 -1 11 2 17 5 13 3 -3 4 -12 1 -19z"/>
<path d="M897 310 c-46 -98 -112 -166 -204 -212 -64 -31 -73 -33 -178 -33
-100 0 -115 2 -167 28 -85 42 -151 107 -193 189 -19 39 -35 77 -35 84 0 9 -11
14 -31 14 -29 0 -31 -2 -25 -27 14 -57 60 -136 113 -193 178 -192 488 -192
666 0 55 59 102 142 113 200 12 58 -20 31 -59 -50z"/>
</g>
</svg>
