<?xml version="1.0" standalone="no"?>
<!DOCTYPE svg PUBLIC "-//W3C//DTD SVG 20010904//EN"
 "http://www.w3.org/TR/2001/REC-SVG-20010904/DTD/svg10.dtd">
<svg version="1.0" xmlns="http://www.w3.org/2000/svg"
 width="609.000000pt" height="595.000000pt" viewBox="0 0 609.000000 595.000000"
 preserveAspectRatio="xMidYMid meet">

<g transform="translate(0.000000,595.000000) scale(0.100000,-0.100000)"
fill="#000000" stroke="none">
<path d="M2790 5857 c-95 -7 -183 -20 -312 -47 -51 -10 -212 -62 -268 -86 -19
-9 -46 -20 -60 -26 -25 -11 -74 -35 -160 -80 -25 -13 -46 -26 -48 -30 -2 -5
-8 -8 -14 -8 -5 0 -22 -10 -36 -21 -25 -21 -26 -22 -4 -16 12 3 22 1 22 -4 0
-5 -6 -9 -14 -9 -7 0 -25 -11 -40 -25 -15 -14 -31 -25 -37 -25 -5 0 -9 -4 -9
-10 0 -17 22 -11 44 13 12 12 28 23 36 25 7 2 26 12 41 23 15 10 32 19 37 19
6 0 12 3 14 8 3 7 140 76 183 92 24 9 59 23 100 40 17 7 46 17 65 22 19 5 51
14 70 19 169 49 276 62 500 63 207 1 251 -3 390 -36 125 -29 322 -111 424
-175 l38 -25 -6 -535 c-3 -295 -8 -538 -10 -541 -3 -2 -33 18 -68 44 -110 86
-236 158 -306 176 -20 5 -53 13 -72 19 -246 66 -504 46 -710 -56 -139 -68
-268 -185 -345 -311 -25 -41 -59 -116 -77 -167 -28 -84 -31 -105 -35 -247 -4
-138 -2 -163 17 -230 12 -41 24 -85 27 -98 3 -12 9 -25 14 -28 5 -3 9 -12 9
-21 0 -26 111 -186 169 -244 153 -150 354 -236 598 -254 101 -8 231 6 298 32
22 8 49 19 60 23 74 28 236 116 322 177 57 39 103 71 104 70 0 -1 2 -244 4
-540 l4 -538 -42 -30 c-36 -26 -172 -96 -232 -119 -74 -29 -161 -52 -260 -71
-93 -18 -495 -18 -590 0 -302 55 -527 145 -762 302 -191 129 -392 334 -518
529 -48 75 -136 240 -167 315 -90 217 -138 465 -138 716 0 178 9 260 42 399
11 47 23 100 25 118 3 18 9 35 14 38 5 3 9 16 9 30 0 13 4 32 9 42 5 9 22 49
37 87 15 39 32 72 36 73 4 2 8 15 8 28 0 13 5 24 10 24 15 0 12 36 -4 49 -11
9 -12 6 -8 -14 3 -16 0 -25 -8 -25 -7 0 -10 7 -6 15 12 31 -4 13 -20 -22 -9
-21 -21 -49 -27 -63 -6 -14 -16 -32 -22 -40 -6 -8 -17 -33 -24 -55 -7 -22 -16
-49 -21 -60 -4 -11 -15 -40 -23 -65 -114 -348 -117 -770 -9 -1140 60 -203 182
-446 296 -591 12 -14 34 -43 51 -65 198 -258 549 -504 874 -613 195 -66 454
-111 638 -111 87 0 301 25 390 45 236 54 470 172 699 351 174 135 452 440 630
689 58 81 153 226 178 270 9 17 25 44 35 60 27 46 151 273 151 278 0 3 22 51
49 108 68 147 68 143 21 263 -123 315 -391 734 -691 1081 -114 131 -305 316
-399 386 -219 162 -504 292 -735 334 -119 22 -324 32 -455 22z m1098 -386
c117 -80 147 -106 262 -221 144 -143 284 -309 421 -498 40 -57 79 -111 84
-120 6 -9 41 -63 78 -119 37 -56 67 -105 67 -109 0 -3 8 -18 19 -32 30 -44
134 -250 175 -349 l39 -93 -17 -47 c-27 -75 -30 -81 -94 -213 -68 -140 -99
-195 -174 -313 -194 -304 -475 -648 -691 -845 -111 -101 -260 -207 -277 -197
-13 8 -14 3225 -1 3225 6 0 55 -31 109 -69z m-731 -795 c186 -40 395 -141 506
-244 l27 -26 0 -487 0 -488 -42 -34 c-231 -185 -521 -279 -764 -248 -338 44
-582 250 -680 576 -28 94 -26 316 5 415 26 83 59 154 102 216 37 54 140 157
193 193 68 46 186 98 266 116 41 9 80 18 85 20 30 10 243 3 302 -9z"/>
<path d="M1741 5414 c-20 -23 -9 -25 19 -4 16 13 20 20 10 19 -8 0 -21 -7 -29
-15z"/>
<path d="M1584 5268 l-19 -23 23 19 c21 18 27 26 19 26 -2 0 -12 -10 -23 -22z"/>
<path d="M1360 5009 c0 -5 5 -7 10 -4 6 3 10 8 10 11 0 2 -4 4 -10 4 -5 0 -10
-5 -10 -11z"/>
<path d="M1310 4940 c0 -5 5 -10 10 -10 6 0 10 5 10 10 0 6 -4 10 -10 10 -5 0
-10 -4 -10 -10z"/>
<path d="M1290 4910 c0 -5 5 -10 10 -10 6 0 10 5 10 10 0 6 -4 10 -10 10 -5 0
-10 -4 -10 -10z"/>
<path d="M1262 4861 c-24 -32 -28 -51 -12 -51 6 0 10 7 10 16 0 9 7 22 16 29
9 6 15 17 13 24 -3 7 -14 0 -27 -18z"/>
<path d="M5382 983 l3 -598 33 -67 c39 -79 93 -131 177 -169 79 -36 160 -49
302 -49 133 0 126 -8 121 140 l-3 95 -120 5 c-126 5 -161 16 -206 63 -48 50
-50 70 -49 385 0 163 2 298 5 300 2 2 66 4 142 3 76 -1 144 3 151 7 9 6 12 38
10 123 l-3 114 -152 3 c-137 2 -153 4 -153 20 -1 9 -2 62 -3 117 l-2 100 -128
3 -127 3 2 -598z"/>
<path d="M2480 1348 c-90 -11 -179 -57 -269 -137 l-33 -30 -47 46 c-26 25 -79
61 -121 81 -67 33 -85 37 -171 40 -105 5 -162 -8 -249 -56 -70 -38 -155 -127
-187 -196 l-28 -61 -3 -473 -3 -473 123 3 123 3 5 430 c3 237 9 439 14 450 30
65 88 114 161 134 55 15 126 -4 177 -48 74 -63 72 -54 78 -536 l5 -430 123 -3
122 -3 0 410 c0 388 1 413 20 465 12 30 33 68 48 85 34 38 105 70 155 71 44 0
110 -29 151 -66 56 -52 56 -56 56 -524 l0 -430 129 0 c104 0 130 3 135 15 9
25 7 807 -4 868 -36 220 -281 395 -510 365z"/>
<path d="M552 1332 c-211 -35 -319 -98 -375 -216 -79 -167 -47 -332 83 -428
80 -59 308 -108 500 -108 87 0 146 -29 178 -87 22 -40 22 -43 6 -82 -9 -23
-28 -50 -42 -61 -45 -36 -146 -60 -249 -60 -138 0 -253 42 -363 132 -19 15
-40 28 -46 28 -17 0 -174 -150 -174 -166 0 -18 144 -113 224 -148 246 -109
573 -89 768 47 102 70 160 180 161 302 0 95 -28 160 -99 224 -86 79 -135 92
-454 121 -150 13 -187 24 -232 70 -44 44 -47 68 -15 125 25 44 72 80 126 95
54 15 189 12 256 -5 71 -18 175 -66 194 -89 7 -9 19 -16 27 -16 13 0 164 139
164 152 0 11 -77 61 -156 102 -140 71 -318 96 -482 68z"/>
<path d="M3590 1322 c-228 -91 -359 -218 -426 -412 -27 -77 -26 -287 1 -380
75 -264 297 -431 605 -456 124 -11 301 38 387 106 14 11 29 20 34 20 4 0 9
-21 11 -47 l3 -48 120 0 120 0 0 370 c0 328 -2 376 -18 425 -23 71 -58 141
-73 147 -11 4 -234 -113 -234 -123 0 -2 8 -18 18 -36 54 -97 54 -270 0 -366
-159 -280 -577 -265 -710 26 -91 199 0 436 203 529 l60 27 -3 121 c-2 98 -6
120 -18 122 -8 1 -44 -10 -80 -25z"/>
<path d="M4992 1314 c-185 -49 -314 -184 -342 -356 -5 -35 -10 -239 -10 -460
l0 -398 125 0 c69 0 126 1 127 3 1 1 5 194 8 429 l5 426 31 39 c50 61 105 87
204 93 l85 5 3 118 3 117 -93 -1 c-51 0 -117 -7 -146 -15z"/>
</g>
</svg>
