<?xml version="1.0" standalone="no"?>
<!DOCTYPE svg PUBLIC "-//W3C//DTD SVG 20010904//EN"
 "http://www.w3.org/TR/2001/REC-SVG-20010904/DTD/svg10.dtd">
<svg version="1.0" xmlns="http://www.w3.org/2000/svg"
 width="591.000000pt" height="591.000000pt" viewBox="0 0 591.000000 591.000000"
 preserveAspectRatio="xMidYMid meet">

<g transform="translate(0.000000,591.000000) scale(0.100000,-0.100000)"
fill="#000000" stroke="none">
<path d="M5428 5529 l-3 -51 -59 -31 -59 -31 46 -41 46 -40 3 -77 3 -77 55 34
c30 19 61 35 68 35 8 0 33 -16 57 -36 l44 -36 7 51 c7 51 7 51 65 77 33 15 59
30 59 34 0 5 -22 24 -48 43 l-48 34 4 71 c2 40 1 72 -2 72 -4 0 -33 -13 -65
-30 l-59 -29 -53 39 c-29 22 -54 40 -55 40 -2 0 -4 -23 -6 -51z"/>
<path d="M4993 5112 c-7 -4 -27 -37 -46 -72 -19 -37 -45 -71 -60 -80 -24 -14
-30 -13 -54 2 -16 10 -43 25 -61 33 -31 15 -36 15 -65 -2 -60 -35 -90 -96
-136 -279 -101 -400 -242 -756 -336 -850 -50 -49 -74 -54 -122 -24 -68 41 -71
29 123 388 148 272 178 335 182 377 4 44 1 53 -22 77 -103 102 -333 -36 -446
-268 -101 -205 -117 -472 -39 -627 68 -133 153 -166 274 -105 176 89 263 264
415 833 81 304 90 321 159 286 22 -12 54 -21 71 -21 26 0 30 -3 26 -22 -56
-259 -71 -465 -41 -564 26 -90 92 -124 187 -99 58 15 112 63 173 154 41 61
103 108 130 97 23 -9 18 -72 -13 -177 -34 -110 -53 -149 -120 -244 -188 -266
-542 -566 -1145 -972 -465 -314 -1022 -699 -1210 -839 -817 -606 -1241 -963
-1551 -1304 -150 -165 -316 -377 -316 -403 0 -4 57 32 126 78 170 114 352 204
427 212 55 6 57 7 89 57 79 126 225 293 454 517 191 187 235 227 584 523 186
158 558 439 1065 807 976 709 1361 1023 1530 1251 104 139 188 345 189 461 1
63 -1 71 -27 93 -51 44 -143 28 -227 -41 -95 -78 -182 -107 -216 -73 -39 39
-37 103 12 408 26 165 43 240 75 334 11 32 18 65 15 72 -6 15 -34 18 -53 6z
m-677 -506 c3 -8 -29 -79 -72 -158 -42 -79 -97 -181 -122 -228 -26 -47 -57
-103 -70 -125 l-24 -40 6 77 c8 103 38 240 69 310 45 100 89 145 167 169 37
11 40 10 46 -5z"/>
<path d="M3728 4963 c-8 -10 -34 -47 -58 -83 -49 -74 -108 -140 -126 -140 -27
0 -22 -19 10 -39 75 -47 74 -137 -4 -346 -28 -77 -80 -198 -113 -269 l-62
-130 -7 40 c-11 61 -9 594 3 644 5 25 19 58 30 73 12 16 18 31 15 34 -11 12
-101 -76 -145 -141 -25 -39 -65 -84 -88 -101 -46 -33 -53 -45 -24 -45 11 0 22
-4 25 -9 3 -5 8 -283 9 -618 4 -659 4 -669 -49 -724 -47 -49 -5 -35 138 47
179 104 179 103 138 102 -17 -1 -36 5 -41 13 -5 8 -9 99 -9 203 l0 189 44 43
c53 53 89 58 128 17 79 -83 143 -394 136 -663 -3 -118 -6 -140 -25 -172 -12
-21 -20 -38 -18 -38 3 0 30 16 61 36 82 52 158 77 222 70 54 -5 69 8 38 34
-29 23 -78 111 -96 169 -11 33 -31 160 -45 283 -43 365 -70 474 -132 528 -28
25 -43 31 -69 28 -19 -2 -34 -2 -34 2 0 3 19 48 41 100 58 133 124 336 150
460 24 112 30 325 12 385 -11 35 -33 43 -55 18z"/>
<path d="M2795 3940 c-128 -68 -156 -90 -116 -90 14 0 25 -9 31 -26 6 -15 10
-170 10 -368 l0 -343 -38 -59 c-41 -63 -87 -107 -138 -132 -37 -17 -80 -10
-88 16 -3 9 -8 179 -11 377 -6 351 -6 361 14 399 11 22 19 41 17 44 -2 2 -67
-32 -145 -75 -134 -75 -139 -78 -116 -91 45 -23 50 -68 50 -442 l0 -345 27
-46 c33 -55 71 -74 130 -65 60 10 153 62 221 126 l59 54 -4 -139 c-3 -126 -6
-146 -29 -196 -48 -101 -130 -173 -236 -205 -57 -17 -113 -5 -141 31 l-20 25
-6 -137 c-4 -76 -9 -176 -12 -222 l-6 -83 65 68 c36 38 91 84 124 103 142 83
193 121 273 201 95 95 141 174 159 274 7 39 11 276 11 684 l0 624 27 49 c14
27 24 51 22 53 -2 3 -62 -27 -134 -64z"/>
<path d="M1024 3472 c-66 -62 -419 -382 -600 -545 -78 -71 -155 -147 -170
-170 -33 -51 -43 -126 -43 -348 -1 -178 3 -187 81 -196 37 -4 64 4 190 61 277
122 390 168 405 161 14 -5 15 -34 10 -251 -5 -233 -7 -247 -29 -284 -14 -23
-133 -131 -303 -275 -154 -130 -304 -257 -333 -281 l-52 -45 0 -130 0 -129
308 277 c169 152 345 311 392 352 119 106 158 149 186 203 24 47 24 48 24 392
0 195 -4 356 -10 370 -14 37 -64 60 -116 52 -23 -3 -142 -53 -265 -112 -141
-67 -237 -107 -259 -108 l-35 -1 -3 80 c-2 44 -1 89 2 100 5 19 136 143 436
415 63 57 139 127 168 154 30 28 60 55 68 59 11 6 14 35 14 127 0 66 -3 120
-7 120 -5 0 -31 -22 -59 -48z"/>
<path d="M1830 3401 c-14 -4 -63 -28 -110 -53 -47 -25 -160 -84 -252 -132
-154 -80 -191 -106 -154 -106 37 0 37 -4 21 -896 -8 -478 -15 -896 -15 -929
l0 -60 25 40 c13 22 25 53 25 69 0 61 33 148 67 182 19 19 40 34 47 34 14 0
21 88 32 445 4 110 10 206 14 214 4 8 32 21 61 28 70 18 208 96 273 155 29 25
65 70 81 100 l30 53 0 385 c0 342 -2 388 -17 416 -9 17 -23 36 -31 42 -19 16
-67 23 -97 13z m-30 -267 c13 -33 13 -499 0 -543 -14 -51 -50 -82 -150 -131
-77 -38 -92 -42 -101 -30 -15 22 -6 567 10 606 10 26 29 39 109 77 53 26 103
47 110 47 7 0 17 -12 22 -26z"/>
</g>
</svg>
