<svg version="1.2" xmlns="http://www.w3.org/2000/svg" viewBox="0 0 1580 1581" width="1580" height="1581">
	<title>VinFast_logo_(simple_variant)-svg</title>
	<style>
		.s0 { fill: #3c3c3c } 
	</style>
	<path id="path2" fill-rule="evenodd" class="s0" d="m561.7 1473.4c-21.6-24.5-52.6-34.1-57.2-68.9h-43.2v175.2h42.5v-106.3c0 6.6 30.5 24.1 42.5 42.2 8.1 9.9 13.3 21.9 15.1 34.6 1.2 9.9 1.6 19.8 1.2 29.7h41.5v-175.3h-42.4z"/>
	<path id="path4" fill-rule="evenodd" class="s0" d="m1051.1 1407.7c3.8 2.6 6.5 6.5 7.7 10.9 16.4 52.7 48.1 157.4 49.3 161.3h-51.9c-3.8-15.9-7.5-31.5-11.2-46.9l-5.5 10.7c-6.6 11.8-13.3 10-28.9 10-15.6 0-15.6 2.1-20 14.1-4.5 12-4.5 12-16.4 12h-32.9c4-12.7 7.2-23.8 10.9-35.8 13.6-44 29.7-95.4 43-139.5h43c4.5-0.5 9.1 0.6 12.9 3.2zm-12 107.7c-5.4-18.4-15.2-52-16.4-55.6l-16.4 55.6-1.8 5.7c1.4-4.2 7.7-5.7 10.8-5.7zm-34.6 5.8v-0.1q0 0 0 0.1z"/>
	<path id="path6" fill-rule="evenodd" class="s0" d="m1303.7 1483.4c-23.3-11-42-12-42-26.6 0-9.3 7.2-15.4 19.3-15.4 14.6 0 28.6 6.2 28.6 16.4 4.2 0 8.4-1.3 11.9-3.7 3.5-2.5 6.1-5.9 7.6-9.9 1.2-5 0.9-10.3-0.8-15.1-1.8-4.9-4.9-9.1-9-12.2-11.4-6.9-24.2-11-37.4-12-13.3-1-26.6 1.2-38.8 6.5-8.8 3.2-16.4 9.2-21.6 17-5.2 7.9-7.7 17.2-7.3 26.6 0 24.5 26 38.6 35.5 43.8 9.5 5.3 22.8 11.2 30.2 15.1 7.4 4 12.9 11.8 11.6 17.8-1.3 5.9-11 9.3-16.4 9.1-10.5-0.4-20.7-3.3-29.9-8.5-11.5-5.7-22-13.3-31-22.5v31.2c0 12.3 11 20.7 20.9 27.1 12.9 7.9 27.7 11.9 42.8 11.6 8.3 0.5 16.6-0.8 24.5-3.6 7.8-2.8 15-7.1 21.1-12.8 9-9.2 14.1-21.4 14.3-34.3 0-20-9-32.8-34.8-45.6"/>
	<path id="path8" fill-rule="evenodd" class="s0" d="m115.5 1405c3.6 40.5-19.3 74.3-28.4 111.2-7.8-21.3-24.6-73.8-31.5-94.8-2.6-8-5.9-16.4-16.4-16.4-13.1 0-26.2 0-39.2 0 0 1 0 1.6 0 2.1 20.2 56.5 41.5 116.7 61.9 173.1h35.1c3.7-0.5 7.2-2.1 10.1-4.6 2.9-2.4 5.1-5.6 6.3-9.1 5.9-17.3 32.8-90.3 40.7-114.9 5.4-14.7 7.7-30.5 6.7-46.1z"/>
	<path id="path10" fill-rule="evenodd" class="s0" d="m738.3 1579.9h47.8v-68.4h25.3c16.4 0 24.4-8.7 24.4-22.4v-16.4q-24.6 0-49.2 0v-28.5h55.3v-39.7h-103.6z"/>
	<path id="path12" fill-rule="evenodd" class="s0" d="m1510.6 1404.5h-68.6v36.9h41.4v138.5h47.9c0-46.3 0-92.2 0-138.5 28.2 0 31.2 1 40.7-6.7 9.5-7.7 7.5-11.4 7.5-38.8-12.8 9.9-46.6 8.6-69 8.6"/>
	<path id="path14" fill-rule="evenodd" class="s0" d="m310 1404.5h-29.2v175.4h47.3c0-26.9 0-52.8 0-78.8 0-25.9 0-52.8 0-79.4 0.1-2.3-0.2-4.6-1.1-6.8-0.8-2.1-2.1-4-3.8-5.6-1.7-1.6-3.7-2.8-5.9-3.5-2.2-0.6-4.5-0.8-6.8-0.5"/>
	<path id="path16" fill-rule="evenodd" class="s0" d="m1419.4 48c-7.1 23.6-105.5 255.1-204 468.5-88.6 193-172 358.7-204.8 424.4-130.5 260.7-203.5 288-221.1 288-17.5-0.3-89.7-27.4-221-288-32.7-65-116.1-231.4-204.7-424.4-98.1-214-196.2-444.9-204.3-468.5 0 0-19.3-37.9-1.5-46.2 23.5-10.5 57.8 27.1 69.5 31.1 34.8 6.8 67 23.3 92.8 47.6 44.8 44.3 327.1 468 394.7 546.9 36.1 42.2 65.7 79.8 74.9 79.8 9.1 0 38.7-37.6 74.8-79.8 67.6-78.7 349.5-502.6 394.5-546.9 25.9-24.3 58.1-40.8 92.9-47.6 11.6-4 46.1-41.6 69.4-31.1 17.9 8.3-1.6 46.2-2.1 46.2zm-31.4 7.7c11.7-13.3 39.6-39.2 29.1-44.8-14.5-8.1-48.8 30.7-69.4 35.9-28.5 4.4-54.8 18.1-74.5 39.1-37.3 35.1-104.9 145.7-224.7 324.4-74.8 112.1-137.2 198.3-172.2 242.1-43.4 55.6-73.3 82-86.4 82-13.2 0-43.2-26.9-86.7-82-35-44-97.3-130.2-172.1-242.1-119.8-178.7-187.6-289.3-224.5-324.4-19.8-21-46.1-34.7-74.5-39.1-20.4-5.2-55-44-69.6-35.9-10 5.6 17.9 31.5 29.2 44.8 43.1 49 348.7 682.3 417.8 800 69.1 117.7 156.2 261.4 180.5 262.6 24.5 0 112.4-145.4 181.4-262.6 68.9-117.2 374.1-751 417.3-800z"/>
	<path id="path18" class="s0" d="m1319.4 90.1c-16.4 26.9-80.4 152.6-162.1 301-90.8 165.9-199.2 353.5-220.9 390.1-40.5 68.4-121.3 185.1-146.5 185.9-25.2-1-105.9-117.5-146.4-186.1-21.5-36.4-129.3-224-220.8-389.9-82-147.7-146.7-274.1-162.1-301-15.4-26.9-10.7-36.1 21.3 0 47.8 55.3 162.3 254.6 162.3 254.6 0 0 197.6 329.5 228.5 373.1 30.8 43.7 94 125.3 116.8 126.1 23.2-0.8 87.8-84.7 117-126.1 29.2-41.3 228.8-373.1 228.8-373.1 0 0 114.9-198.8 162.6-253.6 32-37.1 37.1-30.2 21.5-1z"/>
</svg>